<svg width="33" height="28" viewBox="0 0 33 28" fill="none" xmlns="http://www.w3.org/2000/svg">
<path d="M33 3V9.37868C33 9.7765 32.842 10.158 32.5607 10.4393C31.9749 11.0251 31.0251 11.0251 30.4393 10.4393C30.158 10.158 30 9.7765 30 9.37868V7.81818C30 6.65402 29.5375 5.53754 28.7144 4.71435L28.5 4.5L28.2856 4.28565C27.4625 3.46246 26.346 3 25.1818 3H23.6213C23.2235 3 22.842 2.84196 22.5607 2.56066C21.9749 1.97487 21.9749 1.02513 22.5607 0.43934C22.842 0.158035 23.2235 0 23.6213 0H30C31.6569 0 33 1.34315 33 3Z" fill="#AA1FFF"/>
<path d="M0 3V9.37868C0 9.7765 0.158035 10.158 0.43934 10.4393C1.02513 11.0251 1.97487 11.0251 2.56066 10.4393C2.84196 10.158 3 9.7765 3 9.37868V7.81818C3 6.65402 3.46246 5.53754 4.28565 4.71435L4.5 4.5L4.71435 4.28565C5.53754 3.46246 6.65402 3 7.81818 3H9.37868C9.7765 3 10.158 2.84196 10.4393 2.56066C11.0251 1.97487 11.0251 1.02513 10.4393 0.43934C10.158 0.158035 9.7765 0 9.37868 0H3C1.34315 0 0 1.34315 0 3Z" fill="#AA1FFF"/>
<path d="M0 25V18.6213C0 18.2235 0.158035 17.842 0.43934 17.5607C1.02513 16.9749 1.97487 16.9749 2.56066 17.5607C2.84196 17.842 3 18.2235 3 18.6213V20.1818C3 21.346 3.46246 22.4625 4.28565 23.2856L4.5 23.5L4.71435 23.7144C5.53754 24.5375 6.65402 25 7.81818 25H9.37868C9.7765 25 10.158 25.158 10.4393 25.4393C11.0251 26.0251 11.0251 26.9749 10.4393 27.5607C10.158 27.842 9.7765 28 9.37868 28H3C1.34315 28 0 26.6569 0 25Z" fill="#AA1FFF"/>
<path d="M33 25V18.6213C33 18.2235 32.842 17.842 32.5607 17.5607C31.9749 16.9749 31.0251 16.9749 30.4393 17.5607C30.158 17.842 30 18.2235 30 18.6213V20.1818C30 21.346 29.5375 22.4625 28.7144 23.2856L28.5 23.5L28.2856 23.7144C27.4625 24.5375 26.346 25 25.1818 25H23.6213C23.2235 25 22.842 25.158 22.5607 25.4393C21.9749 26.0251 21.9749 26.9749 22.5607 27.5607C22.842 27.842 23.2235 28 23.6213 28H30C31.6569 28 33 26.6569 33 25Z" fill="#AA1FFF"/>
</svg>
