<svg width="209" height="28" viewBox="0 0 209 28" fill="none" xmlns="http://www.w3.org/2000/svg">
<path d="M33 3V9.37868C33 9.7765 32.842 10.158 32.5607 10.4393C31.9749 11.0251 31.0251 11.0251 30.4393 10.4393C30.158 10.158 30 9.7765 30 9.37868V7.81818C30 6.65402 29.5375 5.53754 28.7144 4.71435L28.5 4.5L28.2856 4.28565C27.4625 3.46246 26.346 3 25.1818 3H23.6213C23.2235 3 22.842 2.84196 22.5607 2.56066C21.9749 1.97487 21.9749 1.02513 22.5607 0.43934C22.842 0.158035 23.2235 0 23.6213 0H30C31.6569 0 33 1.34315 33 3Z" fill="#AA1FFF"/>
<path d="M0 3V9.37868C0 9.7765 0.158035 10.158 0.43934 10.4393C1.02513 11.0251 1.97487 11.0251 2.56066 10.4393C2.84196 10.158 3 9.7765 3 9.37868V7.81818C3 6.65402 3.46246 5.53754 4.28565 4.71435L4.5 4.5L4.71435 4.28565C5.53754 3.46246 6.65402 3 7.81818 3H9.37868C9.7765 3 10.158 2.84196 10.4393 2.56066C11.0251 1.97487 11.0251 1.02513 10.4393 0.43934C10.158 0.158035 9.7765 0 9.37868 0H3C1.34315 0 0 1.34315 0 3Z" fill="#AA1FFF"/>
<path d="M0 25V18.6213C0 18.2235 0.158035 17.842 0.43934 17.5607C1.02513 16.9749 1.97487 16.9749 2.56066 17.5607C2.84196 17.842 3 18.2235 3 18.6213V20.1818C3 21.346 3.46246 22.4625 4.28565 23.2856L4.5 23.5L4.71435 23.7144C5.53754 24.5375 6.65402 25 7.81818 25H9.37868C9.7765 25 10.158 25.158 10.4393 25.4393C11.0251 26.0251 11.0251 26.9749 10.4393 27.5607C10.158 27.842 9.7765 28 9.37868 28H3C1.34315 28 0 26.6569 0 25Z" fill="#AA1FFF"/>
<path d="M33 25V18.6213C33 18.2235 32.842 17.842 32.5607 17.5607C31.9749 16.9749 31.0251 16.9749 30.4393 17.5607C30.158 17.842 30 18.2235 30 18.6213V20.1818C30 21.346 29.5375 22.4625 28.7144 23.2856L28.5 23.5L28.2856 23.7144C27.4625 24.5375 26.346 25 25.1818 25H23.6213C23.2235 25 22.842 25.158 22.5607 25.4393C21.9749 26.0251 21.9749 26.9749 22.5607 27.5607C22.842 27.842 23.2235 28 23.6213 28H30C31.6569 28 33 26.6569 33 25Z" fill="#AA1FFF"/>
<g clip-path="url(#clip0)">
<path d="M53.6659 24.9479C54.3964 24.8748 54.7251 25.4958 54.7251 26.1168C54.7251 26.7377 54.3599 27.3952 53.6659 27.3587C51.3647 27.2491 46.5431 27.2491 44.0958 27.3587C43.3653 27.3952 43 26.7742 43 26.1533C43 25.5323 43.3653 24.9114 43.9834 24.9479C44.8601 25.0209 45.5906 25.1305 45.6693 23.6329C45.8884 20.309 45.7058 17.1705 45.7058 13.7341C45.7058 13.0036 45.3771 12.9305 44.9022 12.9305H44.3178C43.6238 12.9671 43.295 12.3096 43.295 11.6886C43.295 11.1042 43.5872 10.5563 44.2447 10.5563C45.6327 10.5563 45.9306 9.24131 46.0346 7.92634C46.4729 3.06826 48.5549 0 53.7052 0C56.9196 0 59.2208 1.64371 59.2208 3.47006C59.22 3.79261 59.1546 4.11174 59.0286 4.40865C58.9025 4.70556 58.7184 4.97425 58.4869 5.1989C58.2555 5.42355 57.9814 5.59962 57.6808 5.71673C57.3803 5.83385 57.0594 5.88964 56.7369 5.88083C55.0511 5.88083 54.2531 4.67545 54.2531 3.72575C54.2531 2.77605 53.5956 2.41077 52.8651 2.41077C50.6004 2.41077 50.6004 5.55209 50.6004 9.60658C50.6004 10.4832 50.783 10.5198 51.4771 10.5198C52.0615 10.5198 53.8148 10.4467 54.3992 10.4102C55.2421 10.3736 55.5681 10.9946 55.5681 11.6156C55.5681 12.2365 55.2393 12.8209 54.6549 12.8209C53.812 12.7844 52.025 12.7844 51.2944 12.8209C50.71 12.8209 50.6004 13.1132 50.6004 13.7341C50.6004 17.9347 50.71 22.0623 50.8196 23.6329C50.8898 24.5461 51.6934 25.2766 53.6659 24.9479Z" fill="black"/>
<path d="M64.8656 14.8665C64.8656 17.0215 64.7546 19.9437 64.9007 21.77C65.0412 23.5233 65.7057 24.4393 67.1654 24.4393C68.6251 24.4393 70.5624 22.9782 70.745 20.1657C70.8546 18.1202 70.9277 16.0016 70.8855 14.4309C70.849 13.0794 70.5202 12.6776 69.1687 12.7872C68.4382 12.8603 68.0729 12.2393 68.0729 11.6184C68.0729 11.0339 68.4382 10.4495 69.0957 10.4495C71.0625 10.4495 73.3328 10.3399 74.7939 10.1208C75.1592 10.0112 75.8532 10.1573 75.9628 10.6687C76.0723 11.2166 76.0358 12.7872 75.9993 14.1809C75.9262 16.6647 75.8166 20.1348 75.9262 22.2533C76.0358 23.9392 76.255 24.591 77.8256 24.3354C78.3005 24.2623 78.6686 24.8102 78.6686 25.3946C78.6731 25.663 78.604 25.9275 78.4688 26.1593C78.3335 26.3912 78.1373 26.5815 77.9015 26.7096C77.0586 27.1114 73.5913 27.6593 73.2654 27.6593C72.9394 27.6593 72.0965 27.1479 71.6582 25.6925C71.4756 25.1811 71.0738 25.0715 70.3798 25.5829C69.3963 26.3865 67.4211 27.6284 64.7925 27.6649C61.1764 27.7015 59.7518 25.4003 59.6788 21.8206C59.6422 20.6883 59.7518 16.6703 59.7153 14.6557C59.6422 13.4869 59.6422 12.6102 58.2542 12.7928C57.5237 12.9024 57.1219 12.2815 57.1219 11.6605C57.1219 11.0761 57.4872 10.4551 58.2542 10.4551C59.8614 10.4916 62.6009 10.236 63.4396 10.1264C63.9524 10.0533 64.5734 10.0533 64.7925 10.5282C65.0848 11.1772 64.8656 13.1497 64.8656 14.8665Z" fill="black"/>
<path d="M87.9899 23.6329C88.063 24.3269 88.063 25.1305 89.7067 24.9479C90.4372 24.8748 90.8025 25.4593 90.8025 26.0802C90.8025 26.7377 90.4007 27.3952 89.7067 27.3587C86.8107 27.2125 83.9092 27.2125 81.0133 27.3587C80.2462 27.3952 79.881 26.7742 79.881 26.1533C79.881 25.5323 80.2462 24.8748 80.9768 24.9479C81.9265 25.0209 82.6205 24.7653 82.6935 23.7425C82.9492 19.9072 82.8762 5.91736 82.73 4.41976C82.6935 3.36048 82.2552 3.21437 81.2324 3.32395C80.5019 3.43353 80.1366 2.77605 80.1366 2.15509C80.1366 1.60718 80.4289 1.05928 81.0498 1.05928C84.1181 1.02275 85.9444 0.328742 86.9672 0C87.3324 0.140488 87.9899 0.511375 87.9506 1.53413C87.5881 9.71616 87.7651 21.8066 87.9899 23.6329Z" fill="black"/>
<path d="M99.8471 23.6329C99.9202 24.3269 99.9202 25.1305 101.564 24.9479C102.294 24.8748 102.66 25.4593 102.66 26.0802C102.66 26.7377 102.258 27.3952 101.564 27.3587C98.6679 27.2125 95.7665 27.2125 92.8705 27.3587C92.1034 27.3952 91.7382 26.7742 91.7382 26.1533C91.7382 25.5323 92.1034 24.8748 92.834 24.9479C93.7837 25.0209 94.4777 24.7653 94.5507 23.7425C94.8064 19.9072 94.7334 5.91736 94.5873 4.41976C94.5507 3.36048 94.1124 3.21437 93.0897 3.32395C92.3591 3.43353 91.9938 2.77605 91.9938 2.15509C91.9938 1.60718 92.2861 1.05928 92.907 1.05928C95.9753 1.02275 97.8016 0.328742 98.8244 0C99.1896 0.140488 99.8471 0.511375 99.8078 1.53413C99.4467 9.71616 99.6294 21.8066 99.8471 23.6329Z" fill="black"/>
<path d="M104.19 25.6419C104.08 24.8748 104.19 23.4868 104.299 22.6467C104.336 22.0622 105.176 21.6239 105.797 21.6239C106.089 21.6239 106.345 21.7335 106.418 21.9526C106.929 23.5598 107.915 25.3131 109.997 25.3131C111.385 25.3131 112.372 24.546 112.372 23.6273C112.372 22.1297 110.764 21.3991 109.048 20.4494C106.491 18.9883 104.263 17.7099 104.263 14.9704C104.263 11.5734 107.258 9.96619 111.276 9.96619C113.796 9.96619 116.244 10.4776 116.645 10.8091C116.974 11.1379 116.938 13.4784 116.828 14.5349C116.718 15.448 114.819 15.5576 114.636 14.7906C114.271 13.4756 113.248 12.3067 111.459 12.3067C110.034 12.3067 109.157 13.1834 109.157 14.0235C109.157 15.2289 110.843 16.1055 112.627 16.9822C115.732 18.4432 117.924 19.7582 117.924 22.4977C117.924 25.4929 115.221 27.7576 110.838 27.7576C106.856 27.7604 104.299 26.704 104.19 25.6419Z" fill="black"/>
<path d="M134.267 15.9623C134.267 16.3641 133.573 16.839 132.952 16.839C132.513 16.839 132.148 16.6198 132.002 16.0354C131.819 15.2318 131.272 12.7479 128.824 12.7479C126.56 12.7479 124.329 14.6473 124.329 18.1174C124.329 21.8797 126.447 24.2539 129.667 24.2539C131.353 24.2539 132.516 23.4869 133.064 22.7928C133.154 22.6615 133.274 22.5533 133.413 22.4771C133.553 22.4009 133.709 22.3589 133.868 22.3545C134.452 22.3545 134.964 23.012 134.964 23.633C134.964 23.7735 134.964 23.8887 134.744 24.4C133.831 26.4821 130.951 27.7605 127.841 27.7605C122.471 27.7605 119.074 23.8156 119.074 19.1402C119.074 13.7707 122.946 10.0084 129.01 10.0084C131.42 10.0084 133.32 10.7755 133.722 11.1042C134.225 11.506 134.267 14.7204 134.267 15.9623Z" fill="black"/>
<path d="M146.068 24.9114C146.762 24.8384 147.091 25.4593 147.091 26.0803C147.091 26.7378 146.762 27.3952 146.141 27.3587C143.099 27.1942 140.051 27.1942 137.009 27.3587C136.242 27.3952 135.877 26.7012 135.877 26.0437C135.877 25.4593 136.169 24.8749 136.72 24.9114C137.669 25.021 138.619 24.9845 138.765 23.6695C138.984 22.2449 138.948 17.2408 138.692 15.4509C138.4 13.9533 138.035 13.6976 136.866 14.0264C136.354 14.1669 135.882 13.5881 135.882 12.9671C135.882 12.5653 136.065 12.2 136.576 11.9837C137.453 11.6184 140.813 10.4496 141.252 10.4496C141.873 10.4496 142.348 11.2166 142.749 12.3855C142.969 12.8969 143.37 13.4813 143.845 12.7873C144.612 11.8376 146.329 10.0112 148.481 10.0112C150.308 10.0112 151.44 10.9609 151.44 12.4951C151.44 14.1022 150.162 15.0154 148.847 15.0154C147.97 15.0154 147.203 14.5406 146.253 14.5406C144.865 14.5406 143.952 15.2711 143.842 16.6957C143.702 18.8507 143.769 22.1016 143.983 23.6358C144.101 24.327 144.466 25.1306 146.068 24.9114Z" fill="black"/>
<path d="M157.936 18.4827C157.242 18.5192 156.913 18.8479 156.913 19.615C156.913 22.5737 159.434 24.2905 161.88 24.2905C163.229 24.3077 164.535 23.8115 165.532 22.9024C165.703 22.747 165.923 22.6565 166.153 22.6467C166.774 22.6467 167.286 23.3408 167.286 24.0713C167.292 24.3093 167.214 24.5419 167.067 24.7288C165.532 26.7378 162.829 27.6144 160.163 27.6144C154.174 27.6144 151.617 23.7791 151.617 19.2497C151.617 14.209 155.197 10.0084 161.076 10.0084C165.24 10.0084 167.578 13.0402 167.578 15.9623C167.578 16.9851 167.103 18.0443 165.752 18.1539C164.181 18.2635 159.695 18.3731 157.936 18.4827ZM163.523 14.903C163.523 13.9196 162.575 12.6018 161.076 12.6018C158.813 12.6018 157.315 14.83 157.315 15.7797C157.315 16.0719 157.534 16.2545 157.973 16.2545C161.625 16.2545 163.523 16.1084 163.523 14.903Z" fill="black"/>
<path d="M175.136 18.4827C174.442 18.5192 174.113 18.8479 174.113 19.615C174.113 22.5737 176.634 24.2905 179.081 24.2905C180.431 24.3077 181.736 23.8115 182.734 22.9024C182.904 22.747 183.124 22.6565 183.355 22.6467C183.976 22.6467 184.487 23.3408 184.487 24.0713C184.493 24.3093 184.415 24.5419 184.268 24.7288C182.734 26.7378 180.031 27.6144 177.364 27.6144C171.374 27.6144 168.817 23.7791 168.817 19.2497C168.817 14.209 172.397 10.0084 178.277 10.0084C182.442 10.0084 184.779 13.0402 184.779 15.9623C184.779 16.9851 184.304 18.0443 182.953 18.1539C181.382 18.2635 176.889 18.3731 175.136 18.4827ZM180.725 14.903C180.725 13.9196 179.775 12.6018 178.277 12.6018C176.013 12.6018 174.515 14.83 174.515 15.7797C174.515 16.0719 174.734 16.2545 175.173 16.2545C178.825 16.2545 180.725 16.1084 180.725 14.903Z" fill="black"/>
<path d="M199.931 10.0814C203.62 10.0814 205.812 12.4557 205.702 16.5832C205.666 19.067 205.562 21.697 205.562 23.8521C205.562 24.5096 205.702 25.167 207.132 25.0209C207.899 24.9479 208.228 25.5323 208.228 26.1167C208.228 26.7377 207.863 27.4317 207.132 27.3587C204.831 27.176 201.982 27.103 199.352 27.3587C198.585 27.4682 198.183 26.7012 198.183 26.0437C198.183 25.4593 198.475 24.9479 199.096 25.0209C199.939 25.1305 200.302 24.9479 200.375 23.8521C200.515 21.3682 200.515 19.5054 200.515 16.7659C200.515 13.9168 199.127 13.0766 197.922 13.0766C195.767 13.0766 194.05 15.2317 193.904 18.0808C193.794 20.309 193.867 22.7563 193.977 23.7425C194.087 24.473 194.196 25.1305 195.255 25.0209C195.95 24.9479 196.278 25.4958 196.278 26.0802C196.278 26.7012 195.913 27.3587 195.255 27.3221C192.446 27.2126 189.996 27.103 187.107 27.3221C186.304 27.4317 185.938 26.8473 185.938 26.2263C185.938 25.6054 186.34 24.9114 186.998 25.0209C187.947 25.1305 188.751 24.9479 188.824 23.779C188.964 22.4275 188.934 17.2407 188.714 15.4902C188.459 13.9926 187.911 13.7369 186.888 14.0657C186.34 14.2062 185.865 13.5908 185.865 12.9699C185.856 12.7522 185.919 12.5376 186.044 12.3596C186.17 12.1816 186.351 12.0503 186.559 11.9864C187.402 11.6577 190.979 10.4523 191.417 10.4523C191.929 10.4523 192.367 11.1463 192.769 12.3152C193.061 13.1581 193.426 13.0092 193.792 12.6805C195 11.6156 196.936 10.0814 199.931 10.0814Z" fill="black"/>
</g>
<defs>
<clipPath id="clip0">
<rect width="165.221" height="27.7605" fill="white" transform="translate(43)"/>
</clipPath>
</defs>
</svg>
